HIERARCHY
ROOT Hips
{
	OFFSET -3.958830 18.904000 13.208200
	CHANNELS 6 Xposition Yposition Zposition Zrotation Yrotation Xrotation 
	JOINT LHipJoint
	{
		OFFSET 0.000000 0.000000 0.000000
		CHANNELS 3 Zrotation Yrotation Xrotation
		JOINT LeftUpLeg
		{
			OFFSET 1.800000 -1.400000 0.085000
			CHANNELS 3 Zrotation Yrotation Xrotation
			JOINT LeftLeg
			{
				OFFSET 2.215000 -6.000000 0.000000
				CHANNELS 3 Zrotation Yrotation Xrotation
				JOINT LeftFoot
				{
					OFFSET 2.500000 -6.900000 0.000000
					CHANNELS 3 Zrotation Yrotation Xrotation
					JOINT LeftToeBase
					{
						OFFSET 0.200000 -0.500000 1.950000
						CHANNELS 3 Zrotation Yrotation Xrotation
						End Site
						{
							OFFSET 0.000000 0.000000 0.000000
						}
					}
				}
			}
		}
	}
	JOINT RHipJoint
	{
		OFFSET 0.000000 0.000000 0.000000
		CHANNELS 3 Zrotation Yrotation Xrotation
		JOINT RightUpLeg
		{
			OFFSET -1.800000 -1.400000 0.085000
			CHANNELS 3 Zrotation Yrotation Xrotation
			JOINT RightLeg
			{
				OFFSET -2.215000 -6.000000 0.000000
				CHANNELS 3 Zrotation Yrotation Xrotation
				JOINT RightFoot
				{
					OFFSET -2.500000 -6.900000 0.000000
					CHANNELS 3 Zrotation Yrotation Xrotation
					JOINT RightToeBase
					{
						OFFSET -0.200000 -0.500000 1.950000
						CHANNELS 3 Zrotation Yrotation Xrotation
						End Site
						{
							OFFSET 0.000000 0.000000 0.000000
						}
					}
				}
			}
		}
	}
	JOINT LowerBack
	{
		OFFSET 0.000000 0.000000 0.000000
		CHANNELS 3 Zrotation Yrotation Xrotation
		JOINT Spine
		{
			OFFSET -0.087000 1.940000 -0.288900
			CHANNELS 3 Zrotation Yrotation Xrotation
			JOINT Spine1
			{
				OFFSET 0.000000 1.950000 0.060000
				CHANNELS 3 Zrotation Yrotation Xrotation
				JOINT Neck
				{
					OFFSET 0.000000 0.000000 0.000000
					CHANNELS 3 Zrotation Yrotation Xrotation
					JOINT Neck1
					{
						OFFSET 0.000000 1.600000 0.340000
						CHANNELS 3 Zrotation Yrotation Xrotation
						JOINT Head
						{
							OFFSET 0.000000 1.667000 -0.240000
							CHANNELS 3 Zrotation Yrotation Xrotation
							End Site
							{
								OFFSET 0.000000 0.000000 0.000000
							}
						}
					}
				}
				JOINT LeftShoulder
				{
					OFFSET 0.000000 0.000000 0.000000
					CHANNELS 3 Zrotation Yrotation Xrotation
					JOINT LeftArm
					{
						OFFSET 2.700000 1.550000 -0.730000
						CHANNELS 3 Zrotation Yrotation Xrotation
						JOINT LeftForeArm
						{
							OFFSET 5.450000 0.000000 0.000000
							CHANNELS 3 Zrotation Yrotation Xrotation
							JOINT LeftHand
							{
								OFFSET 3.450000 0.000000 0.000000
								CHANNELS 3 Zrotation Yrotation Xrotation
								JOINT LeftHandIndex1
								{
									OFFSET 0.750000 0.000000 0.000000
									CHANNELS 3 Zrotation Yrotation Xrotation
									End Site
									{
										OFFSET 0.000000 0.000000 0.000000
									}
								}
							}
						}
					}
				}
				JOINT RightShoulder
				{
					OFFSET 0.000000 0.000000 0.000000
					CHANNELS 3 Zrotation Yrotation Xrotation
					JOINT RightArm
					{
						OFFSET -2.700000 1.550000 -0.730000
						CHANNELS 3 Zrotation Yrotation Xrotation
						JOINT RightForeArm
						{
							OFFSET -5.450000 0.000000 0.000000
							CHANNELS 3 Zrotation Yrotation Xrotation
							JOINT RightHand
							{
								OFFSET -3.450000 0.000000 0.000000
								CHANNELS 3 Zrotation Yrotation Xrotation
								JOINT RightHandIndex1
								{
									OFFSET -0.750000 0.000000 0.000000
									CHANNELS 3 Zrotation Yrotation Xrotation
									End Site
									{
										OFFSET 0.000000 0.000000 0.000000
									}
								}
							}
						}
					}
				}
			}
		}
	}
}
MOTION
Frames: 8
Frame Time: 0.016667
-0.516890 17.373770 -2.775660 -6.286659 -13.756573 -16.514443 -15.268171 12.488275 3.787854 33.470380 2.374433 -15.649358 -10.864684 19.665530 45.404624 1.418694 11.037164 0.825047 0.251200 0.505920 -0.325390 18.357914 -11.309619 1.012637 -28.026437 0.050394 -0.671259 2.519519 -12.236526 44.614110 -1.034499 -8.451572 1.365831 0.193510 0.673950 0.368180 -3.562297 -1.142120 -7.339905 3.711414 1.415657 12.412525 -3.132439 3.984662 27.942928 -1.617610 -7.251487 -13.049397 -17.011674 1.808227 40.252393 4.823850 -8.184930 -3.140960 10.707057 -23.391771 8.725814 -30.552262 -33.214329 -3.409972 70.076117 -35.495036 -33.868981 -3.654665 3.189209 -0.164580 0.279540 0.040040 0.512580 -6.997942 32.159418 9.655025 22.051910 32.530428 -7.528530 -67.410671 60.160602 -43.360490 1.768520 -0.578950 0.169830 0.263870 -0.072740 0.551540 
-0.473770 17.362110 -2.710650 -6.341618 -14.773449 -15.599726 -15.309452 12.688764 3.910375 34.328367 1.758717 -15.066049 -11.129374 19.521491 44.362550 1.448597 10.939673 0.852918 0.167600 0.370930 -0.335170 18.305735 -11.336109 0.854635 -27.440571 -0.486650 -4.857602 -1.745504 -10.639364 47.876296 -1.001254 -8.351584 1.385925 0.071500 0.651910 0.397540 -3.384620 -1.469000 -7.398134 2.351786 0.108594 12.728383 -3.958614 2.100313 24.920417 -1.015309 -7.487329 -13.660744 -17.514459 3.930892 40.302419 4.174930 -6.291270 -0.658950 6.600356 -18.678268 8.376207 -31.828455 -25.069760 -4.532668 58.202793 -41.067046 -27.907027 -3.581121 3.111469 -0.135800 0.275920 0.050960 0.469270 -3.928171 27.166105 10.420187 27.156598 30.047780 -3.384116 -90.485496 65.996993 -67.540096 1.765904 0.909692 0.183700 0.190640 -0.042830 0.528600 
-0.422920 17.392770 -2.682750 -7.025968 -15.347942 -15.533368 -15.230280 12.982303 3.801851 33.711067 1.302830 -14.788424 -8.978300 18.276449 44.770853 1.323758 10.682384 0.909596 0.095430 0.233000 -0.347050 18.319731 -11.465029 0.916721 -25.369527 -0.162340 -8.075840 -4.898073 -9.186663 51.480844 -1.046570 -8.435871 1.361908 -0.016150 0.619030 0.390700 -3.468057 -1.606584 -7.451098 3.191233 -1.223339 15.694762 -5.478835 0.642873 22.904609 -0.351473 -8.450583 -14.433028 -19.309876 4.824374 38.574940 4.062200 -5.969670 -1.759180 4.033572 -14.143313 7.473900 -32.833403 -17.361878 -6.825819 48.735131 -44.762635 -23.616489 -3.518264 3.035632 -0.014330 0.229510 0.068980 0.419110 -2.623362 22.875856 12.173261 29.580024 24.323025 -0.449470 -116.069499 60.528797 -102.613067 2.505903 -0.819661 0.133630 0.186130 0.012880 0.473200 
-0.389260 17.434420 -2.669940 -7.338117 -15.895158 -16.080915 -15.104694 13.311644 3.503194 31.865543 0.991537 -14.438995 -5.500664 16.404350 45.917296 1.308438 10.261055 1.068514 0.018950 0.140530 -0.404920 18.348943 -11.651027 1.131146 -23.766762 0.483162 -10.409613 -6.511004 -8.319514 54.516948 -1.102808 -8.637347 1.330700 -0.105670 0.632160 0.369460 -3.631109 -1.597602 -7.477504 3.558608 -2.187671 20.009035 -6.828112 -0.287340 20.090776 -0.099060 -9.882783 -14.670168 -21.567313 5.324859 35.111128 5.359820 -6.611910 -2.129160 3.091614 -9.086605 6.689789 -34.965032 -10.765084 -9.233897 45.839392 -48.542066 -23.289980 -3.475306 3.016168 0.007080 0.198240 0.068320 0.415560 -2.121244 18.702990 12.475749 31.032699 16.653561 -2.502409 -134.713713 55.352899 -124.092392 2.460344 -1.714672 0.129640 0.186080 0.031340 0.493260 
-0.374040 17.454980 -2.681290 -7.452828 -15.581074 -16.570493 -15.049184 13.708517 3.175234 29.328948 0.379751 -14.887397 -1.095912 13.879853 47.444654 1.194936 9.811127 1.230257 -0.105160 -0.028080 -0.467830 18.312085 -11.706279 1.419428 -22.438808 1.118032 -12.821196 -6.810578 -8.380485 57.835621 -1.167047 -8.994229 1.241376 -0.204490 0.664220 0.335260 -3.596083 -1.863124 -7.536519 2.018498 -2.703663 25.526577 -7.202491 -1.119202 15.742561 0.319631 -10.783144 -14.657698 -22.606251 5.528146 31.070398 6.118300 -6.513860 -3.027820 3.705471 -2.836550 5.305761 -37.070492 -6.167807 -10.813641 46.386578 -52.901947 -24.989719 -3.485207 2.922757 0.063990 0.185860 0.035860 0.371290 -3.508777 13.105562 12.440893 32.876735 8.690435 -3.194835 -144.959139 48.516170 -132.117453 2.415685 -1.884685 0.063950 0.211950 0.102590 0.468760 
-0.373490 17.473500 -2.693050 -8.031198 -14.877581 -17.122259 -14.965441 14.070877 2.828558 26.997906 -0.283845 -15.297849 4.144213 10.678364 48.537026 1.116403 9.274324 1.453344 -0.198010 -0.160890 -0.520790 18.315829 -11.739003 1.715732 -21.008106 1.584921 -14.469460 -6.070329 -9.129971 60.533663 -1.237202 -9.370953 1.157415 -0.283110 0.698090 0.291470 -3.686158 -2.109768 -7.528086 1.482896 -3.535052 31.460535 -7.610903 -2.461068 10.194793 0.594998 -12.424108 -14.875564 -25.662371 5.414346 26.555174 6.310260 -7.089950 -2.854950 4.428208 1.922834 4.567065 -36.199857 -2.079532 -11.383913 50.206127 -56.815567 -28.307079 -3.463702 2.814695 0.085550 0.171970 -0.004200 0.362640 -4.506680 9.207365 12.353262 30.700040 0.387426 -3.481851 -151.337415 42.017182 -134.411134 2.411211 -2.009903 0.011970 0.232850 0.130690 0.467090 
-0.377250 17.507790 -2.707630 -8.763015 -13.648992 -17.868598 -14.808209 14.239652 2.485257 25.132721 -1.043655 -14.792257 8.962969 7.378809 48.024960 1.048398 8.670110 1.693620 -0.312280 -0.273390 -0.627850 18.402750 -11.936208 1.953696 -19.381534 1.512912 -15.207076 -4.918363 -9.953963 61.035611 -1.229090 -9.480457 1.160743 -0.351660 0.760640 0.239730 -4.024661 -1.855114 -7.421588 1.493452 -4.982029 36.436469 -8.683128 -4.492613 5.834499 0.073504 -13.597910 -15.215434 -28.238484 5.582311 23.185004 8.221540 -8.329260 -2.546100 7.270385 4.887107 5.206237 -34.549907 0.865954 -11.077708 59.468560 -59.602749 -35.063913 -3.470942 2.616681 0.067780 0.175600 -0.058480 0.347980 -5.894277 5.985450 11.710451 29.778950 -4.414183 -3.797676 -152.049668 36.952573 -126.888311 2.414106 -2.073178 -0.025730 0.269530 0.187530 0.494100 
-0.388780 17.518240 -2.740150 -9.166164 -12.677263 -18.890974 -14.820503 14.434325 2.243188 23.621481 -1.544523 -14.569293 13.904028 4.359326 47.597811 0.941910 8.428146 1.818774 -0.428720 -0.423290 -0.693640 18.371295 -11.845602 2.164588 -18.393022 1.791631 -15.857395 -2.550292 -11.447668 61.187974 -1.205261 -9.672219 1.112761 -0.390200 0.848450 0.205230 -3.962628 -2.114427 -7.366005 -0.328177 -4.503054 39.545551 -7.985136 -4.262877 5.961553 -0.094872 -13.636873 -15.557347 -27.647732 4.707087 20.800009 7.975650 -8.829020 -1.902760 10.722874 5.380327 6.413405 -33.417102 -0.246858 -9.255355 76.642744 -57.693965 -46.661086 -3.619135 2.341694 0.072370 0.231410 -0.146220 0.303630 -8.741614 5.297862 11.324399 27.565059 -5.406348 -4.540916 -150.990584 31.277396 -115.920748 2.353123 -2.092628 -0.122040 0.326820 0.279700 0.466410 
